# xmcd
#
# Track frame offsets:
#	150
#	16004
#	32775
#	49185
#	65078
#	78716
#	93488
#	106613
#	118639
#	134492
#	151267
#	167677
#	183717
#	197300
#	212072
#	225138
#
# Disc length: 3162 seconds
#
# Revision: 1
# Processed by: cddbd v1.5.2PL0 Copyright (c) Steve Scherf et al.
# Submitted via: audiograbber 1.83.01
#
DISCID=cb0c5810
DTITLE=Gabe Lopez - Crossing A New Frontera
DYEAR=2005
DGENRE=Country
TTITLE0=Crossing A New Frontera
TTITLE1=Make Up You Mind
TTITLE2=I Wanna Dance With You
TTITLE3=Loving You Too Much
TTITLE4=Pachanga Girl
TTITLE5=Take My Heart
TTITLE6=A Vaquero Shooting Pool
TTITLE7=Evil Wind
TTITLE8=Cruzar Nuevas Fronteras
TTITLE9=Decidete
TTITLE10=Quiero Bailar Y Bailar
TTITLE11=Te Estoy Queriendo Mucho Mas
TTITLE12=Pachangera
TTITLE13=Toma El Corazon
TTITLE14=Un Cowboy En Su Billar
TTITLE15=Vientos Malos
EXTD=
EXTT0=
EXTT1=
EXTT2=
EXTT3=
EXTT4=
EXTT5=
EXTT6=
EXTT7=
EXTT8=
EXTT9=
EXTT10=
EXTT11=
EXTT12=
EXTT13=
EXTT14=
EXTT15=
PLAYORDER=
